<svg xmlns="http://www.w3.org/2000/svg" viewBox="0 0 577.54662 918" id="SVG 86" xmlns:xlink="http://www.w3.org/1999/xlink"><path d="M283.23108.140901c-15.4258.718606-24.30043 4.163468-25.39841 10.04973-.24903 1.33503-.66101 2.306731-1.1373 2.936155h-2.52345c-.53098-.695879-.94826-1.729762-.94826-3.47488 0-8.510899 1.19769-8.806142-69.35888 17.1129-18.1864 6.68086-37.78446 14.32151-43.55093 16.98057-5.76646 2.65904-13.02495 5.77009-16.12997 6.91195-18.21582 6.69886-75.86366 38.1819-83.02209 45.34033-1.356 1.356-2.46676 5.09808-2.46676 8.31702 0 4.55223-.42888 5.4214-1.93434 3.91594-3.88806-3.88807-7.30305-2.03915-10.57898 5.7274-3.37007 7.98974-4.2443 28.36428-7.96734 185.49467l-1.00181 42.34118h-4.45149c-10.5751 0-11.90098 6.21231-12.52279 58.64441-.59471 50.14753-.77371 49.07462 8.28551 49.68473 8.66231.58338 8.22601 7.00015-.4757 7.00015H2.4026l-.48831 24.19496c-.82733 41.02373 2.04056 75.61716 7.12932 86.01811l4.25617 8.69821-2.08556 57.51659c-2.80311 77.33233.22516 107.56793 14.88242 148.59106 27.81036 77.83618 120.75432 130.55785 238.418 135.23974 89.68357 3.5686 152.99227-8.1805 208.50827-38.69618 6.2186-3.4182 11.647-6.21572 12.0628-6.21572 2.704 0 32.1736-24.14237 41.3047-33.83829 43.3914-46.07552 56.1034-103.96346 49.5272-225.50141-.9465-17.49408-2.453-81.89043-3.3489-143.10309-.896-61.21266-2.3098-132.34671-3.1408-158.07372-.831-25.72702-2.3169-78.71455-3.3049-117.74879-1.4677-57.99922-2.2787-72.3698-4.4295-78.62416-2.6249-7.63298-7.6685-11.55026-10.0055-7.76886-1.9222 3.1102-5.3939-2.55497-4.2814-6.98755 2.6964-10.74282-74.4355-49.05996-164.6014-81.76825-48.88418-17.733481-50.48438-17.916702-50.56989-5.777801-.002.290661-.0577.242841-.0661.478871h-1.68231c-.74253-1.423297-1.41552-3.61628-1.42713-5.37456-.0329-4.745695-7.40853-6.842559-28.26524-8.03979-6.55293-.376151-12.42157-.441155-17.5634-.201625z"></path><circle cx="50%" cy="52%" r="5" fill="#ffea00"></circle></svg>