<svg xmlns="http://www.w3.org/2000/svg" viewBox="0 0 635 1249.9996" id="SVG 88" xmlns:xlink="http://www.w3.org/1999/xlink"><path d="M322.67803 1249.724187c-16.79243.3452-30.80108.3694-31.13035.053-.32926-.3157-5.39548-.9364-11.25828-1.3797-5.86277-.4433-15.96414-1.8603-22.44747-3.149-6.48332-1.2887-18.11973-4.1698-25.85867-6.4024-7.73896-2.2326-18.91998-5.9764-24.84672-8.3193-5.92674-2.3429-17.78021-7.6657-26.34106-11.8284-8.56085-4.1629-20.41433-10.6616-26.34106-14.442-5.92674-3.7801-17.51083-11.9559-25.74241-18.1682-8.23158-6.2123-21.97084-18.2601-30.53168-26.773-8.56084-8.5128-19.24417-20.0187-23.74073-25.5683-4.49655-5.5497-12.87051-17.0354-18.60879-25.5236-5.73828-8.4883-13.18627-20.7754-16.55107-27.305-3.36481-6.5294-8.82531-18.3135-12.13445-26.1868-3.30913-7.8733-8.17715-21.2923-10.8178-29.8196-2.64067-8.5275-6.41963-23.4548-8.3977-33.1718-1.97807-9.71691-3.94466-20.87247-4.37021-24.79012-.42554-3.91767-.98821-8.4586-1.25038-10.09096-.26218-1.63236-.88898-8.84442-1.39294-16.0268C.41232 933.650307 0 910.945657 0 890.377927c0-20.56773.43723-45.40927.9716-55.20343.53438-9.79416 1.1704-19.67736 1.41337-21.96266.24297-2.2853.75623-8.69603 1.14057-14.24604.38434-5.55003 1.22549-15.16611 1.86922-21.36908.64374-6.20296 3.08649-28.90761 5.42834-50.45475 4.07599-37.50277 4.22949-40.47007 3.5924-69.44948-.36604-16.65007-.97132-36.49213-1.34508-44.0935-.62221-12.65428-.45716-14.25289 1.95571-18.9424 2.20767-4.2907 2.5204-6.34135 1.92736-12.63815-.40185-4.26691-1.48816-8.29008-2.51272-9.30595-.99265-.98424-2.31846-3.76901-2.94622-6.18837-.62777-2.41938-2.3163-20.95989-3.75229-41.20116-1.43598-20.24126-2.95725-40.80898-3.38059-45.70606-.42333-4.89707-.7418-21.45811-.70767-36.80229.0341-15.34418.23895-31.53593.45519-35.98166.24304-4.99655 1.05211-8.73651 2.11881-9.79416.9491-.94106 2.30212-1.71101 3.00672-1.71101.87526 0 1.04404-3.85487.53281-12.16849-.41155-6.69267-1.16123-20.1819-1.66594-29.97607-.50472-9.79415-.8815-37.84106-.83731-62.32644.0455-25.22252.7156-51.20834 1.54594-59.95213.80607-8.48827 2.54717-22.91239 3.86912-32.0536 1.57233-10.8725 4.00928-21.39643 7.04662-30.4306 2.5537-7.59562 6.31927-17.1026 8.36796-21.12662 2.0487-4.02404 4.59079-7.64587 5.64912-8.04856 1.11766-.42525 2.53838.10068 3.38943 1.25468 1.15487 1.56599 1.72279 1.66971 2.68124.4897.66882-.82343 1.54262-5.41396 1.9418-10.20121.51627-6.19159 1.48901-9.78975 3.36992-12.46529 1.45429-2.06867 6.50601-8.30214 11.22607-13.85217 4.72006-5.55002 11.21333-12.51043 14.42949-15.46758 3.21616-2.95715 9.61912-8.382925 14.22881-12.057265 4.60969-3.674353 14.84678-10.561059 22.74909-15.303817 7.90232-4.742745 21.40724-12.138415 30.01094-16.434821 8.6037-4.296407 17.7632-8.713856 20.35446-9.816537 2.59125-1.102691 9.62777-3.882344 15.63669-6.177014 6.00892-2.294658 17.05421-6.264474 24.54508-8.821806 7.49087-2.55732 21.16289-6.54848 30.38226-8.869244 9.21938-2.320753 19.72587-4.77207 23.34777-5.447369 3.62189-.675286 8.74044-1.543583 11.37455-1.929543 2.6341-.38595 6.67506-.946331 8.97991-1.245283 2.30484-.298954 9.03977-1.069534 14.96651-1.712399C293.2838.545422 301.50042.015066 305.61621.0097L313.09946 0v20.182266H321.38387l.34775-9.794159.34775-9.794157 9.57857-.152669c5.26821-.08393 12.81134.270972 16.7625.788732 3.95116.517772 10.41669 1.28205 14.36785 1.698391 3.95116.416351 13.83282 2.077631 21.95923 3.691731 8.12642 1.614113 21.32689 4.773471 29.33437 7.020809 8.00749 2.247337 19.94701 5.915315 26.53227 8.151066 6.58527 2.235738 19.51634 7.0871 28.73571 10.780779 9.21937 3.69368 23.22803 10.090416 31.13035 14.214968 7.90232 4.124551 19.48636 10.564013 25.74236 14.309905 6.256 3.74589 15.2501 9.68489 19.9868 13.197752 4.7368 3.512874 12.2389 9.7362 16.6715 13.829613 4.4325 4.09341 12.2349 12.42698 17.3385 18.51901 5.1037 6.09206 10.1285 12.85062 11.1664 15.01906 1.0635 2.22236 1.8868 7.03834 1.8868 11.03763 0 4.67907.5787 7.57121 1.6994 8.49341 1.3363 1.09965 1.9367.97787 2.8103-.5702.6111-1.08271 2.1108-1.77767 3.3327-1.54435 1.4955.28558 3.8798 4.10808 7.2956 11.69688 2.7907 6.19998 6.4726 16.07354 8.1818 21.94126 1.7093 5.86772 3.8976 15.15904 4.8629 20.64739.9653 5.48837 2.6592 18.5841 3.7645 29.10166 1.505 14.3228 2.0303 31.04244 2.0929 66.60964.045 26.11775-.3731 58.17135-.9313 71.23023-.5582 13.05888-1.1821 24.01344-1.3863 24.34347-.2043.33002-.6976 19.29507-1.0963 42.14455-.3986 22.84948-.9977 49.29079-1.3314 58.75848-.3339 9.46769-.8853 21.75491-1.2257 27.30493-.3404 5.55001-1.1491 19.43992-1.7973 30.86643-.6481 11.42652-1.4968 41.07611-1.8861 65.88798-.5749 36.65629-.337 49.2293 1.2696 67.07513 1.0874 12.07946 4.0715 41.46194 6.6312 65.29438 2.5596 23.83245 4.9605 47.07132 5.3352 51.64193.3746 4.57061.9328 11.78266 1.2403 16.0268.3075 4.24413 1.1897 18.35815 1.9604 31.36446.8813 14.87125 1.1367 38.44355.6879 63.51363-.3924 21.92618-1.2512 44.13959-1.9084 49.36315-.6572 5.22354-1.4403 11.10003-1.7402 13.05886-.2999 1.95883-.9047 6.23265-1.3439 9.49737-.4393 3.26472-1.8753 11.01099-3.1915 17.21399-1.3161 6.2029-3.6704 15.8191-5.2317 21.3691-1.5615 5.55-3.8869 13.3294-5.1678 17.2875-1.2808 3.958-4.8181 13.2228-7.8606 20.5885-3.0426 7.3655-8.5413 19.3525-12.2194 26.6377-3.6781 7.2852-10.8009 19.3896-15.8285 26.8984-5.0275 7.5088-14.3264 20.0632-20.6643 27.8985-6.3379 7.8353-18.2256 20.6568-26.4172 28.492-8.1915 7.8354-21.0619 18.8485-28.60074 24.4738-7.53885 5.6253-18.37048 13.2087-24.07031 16.8518-5.69983 3.6433-16.74512 9.7916-24.54508 13.6629-7.79997 3.8715-20.3779 9.4506-27.95096 12.3981-7.57305 2.9475-18.34895 6.7212-23.94642 8.3858-5.59748 1.6647-13.94879 3.8888-18.55848 4.9428-4.60968 1.054-13.76919 2.7331-20.35446 3.7318-7.0717 1.0723-24.47207 2.0725-42.5049 2.4432zm278.37715-175.3343c-.3293 0-.5986-.2671-.5986-.5935 0-.3266.2693-.5937.5986-.5937.3293 0 .5987.2671.5987.5937 0 .3264-.2694.5935-.5987.5935z"></path><circle cx="50%" cy="47%" r="5" fill="#9e00ff"></circle></svg>