<svg xmlns="http://www.w3.org/2000/svg" viewBox="0 0 548.365 910" id="SVG 85" xmlns:xlink="http://www.w3.org/1999/xlink"><path d="M236.318 907.902c-41.77-5.043-72.37-13.455-105.318-28.953C60.033 845.567 9.17 777.574 1.953 706.441c-3.87-37.438-1.66-75.616 3.733-112.811 1.221-7.313.555-8.498 6.672-45.765 1.94-11.814 1.928-10.243.33-48.313-.309-12.642-1.194-25.312-1.93-37.882-.33-5.641 1.933-11.354 5.676-11.921 2.206-.335 2.326-2.648.136-2.648-3.762 0-6.164-3.544-6.84-10.09-1.788-17.295-3.876-90.576-4.509-104.15-.437-9.393 1.045-14.95 4.323-16.207 1.197-.46 1.126-16.3-.123-27.453-2.295-41.177-5.013-82.333-7.456-123.503-1.502-25.286-.948-29.84 5.306-43.634C40.241 56.279 182.091 11.019 216.753 2.109c13.316-3.423 16.187-2.577 16.223 4.78.014 2.748-.556 2.735 9.054.21 19.123-5.022 44.217-5.13 63.182-.268l8.347 2.14a2.15 2.15 0 0 0 2.684-2.083V5.7c0-5.946 2.975-6.953 12.85-4.35 101.42 26.733 191.787 77.823 211.932 119.816 6.544 13.642 6.985 19.09 4.641 57.435-6.116 86.781-10.218 173.66-13.348 260.59-1.327 28.839-3.718 57.832.221 86.585 11.118 65.733 23.872 148.882 9.242 205.71-10.69 41.53-36.27 91.591-95.027 130.853-53.36 35.655-138.967 54.19-210.436 45.562z"></path><circle cx="50%" cy="51%" r="5" fill="#ff00ee"></circle></svg>