<svg xmlns="http://www.w3.org/2000/svg" viewBox="0 0 1160 350" id="SVG 96" xmlns:xlink="http://www.w3.org/1999/xlink"><path d="M631.28516 0v.00194a575.18274 559.02243 0 0 0-98.09375 9.198933c-12.0006 1.839072-25.10871 3.837298-29.47266 4.471381-5.44731.791566-30.68797 6.408366-56.09375 12.480661-25.40569 6.072109-57.2446 14.313771-70.75 18.318298-13.5052 4.004724-30.08503 10.421628-36.84375 14.256407-6.75884 3.834724-15.8756 7.988092-20.26563 9.229984-1.0572.299078-2.02685.446183-2.99609.589973a113.96166 97.125932 0 0 0-47.15234-8.707934 113.96166 97.125932 0 0 0-110.00196 72.326127c-2.75599 4.35148-17.41344 13.01559-50.86132 30.11195-27.907294 14.26431-63.794491 33.55704-79.748051 42.87013C9.0032534 216.82436 0 223.6682 0 227.19812c0 2.81518 1.2697149 5.89219 2.8261719 6.84098 1.556439.94904 2.8320312 3.85571 2.8320312 6.45672 0 2.60101 4.1407828 10.4409 9.1992189 17.42558 5.058464 6.98488 18.900554 23.94027 30.761719 37.6768 10.374747 12.01491 23.762845 26.19439 32.947265 35.1966L99.007812 350H1113.6328l.1348-.54533a36.447131 84.411558 32.651383 0 1 1.7226-2.89942 95.80393 102.54614 0 0 1 7.8965-13.28799 36.447131 84.411558 32.651383 0 1 2.7793-4.67903 36.447131 84.411558 32.651383 0 1 29.5684-33.03465l3.5488-4.74307.5547-1.10816.1621-.50457v-.47742l-.2695-1.31191-1.584-4.07743a633.75704 614.06496 0 0 0-.791-1.05574c-.4359-.84796-1.1016-1.8356-1.6035-2.73834v-.0155a75.075353 8.0003462 49.000558 0 0-2.5469-4.34523c-.2391-.37165-.3791-.70682-.6289-1.07905l-.9668-1.43418a75.075353 8.0003462 49.000558 0 0-2.959-4.41704l-3.7656-5.60863-.2032.0136a75.075353 8.0003462 49.000558 0 0-21.8339-27.5444l-.4356-.76076-3.2187-4.1434a657.88939 678.72181 0 0 0-3.0332-3.08766 75.075353 8.0003462 49.000558 0 0-1.0547-1.26145 75.075353 8.0003462 49.000558 0 0-22.3028-24.43152c-1.4704-1.64396-2.8735-3.23698-4.9707-5.33694-1.3737-1.37603-1.9205-1.70751-3.0293-2.76743a75.075353 8.0003462 49.000558 0 0-16.0293-14.46601 657.88939 678.72181 0 0 0-48.5625-40.57234 633.75704 614.06496 0 0 0-18.5859-14.21177 657.88939 678.72181 0 0 0-49.36523-31.909036 633.75704 614.06496 0 0 0-18.88086-10.555485 657.88939 678.72181 0 0 0-58.51563-28.454591 633.75704 614.06496 0 0 0-.0117-.0039A575.18274 559.02243 0 0 0 631.28518.000011Z"></path><circle cx="48%" cy="calc(100% - 4px)" r="5" fill="#00ff52"></circle></svg>