<svg xmlns="http://www.w3.org/2000/svg" viewBox="0 0 910 339.998" id="SVG 91" xmlns:xlink="http://www.w3.org/1999/xlink"><path d="M614.671 0c-42.954-.022-91.98 4.885-150.431 15.738C407.34 27.2 357.924 44.34 305.865 66.02l-9.313-3.135c-58.692-19.76-128.163 10.924-151.348 66.847l-2.927 7.063C96.454 159.909 50.75 183.383 7.392 210.943c-8.26 4.914-8.343 5.97-6.238 11.561 16.15 45.555 44.197 78.215 76.902 111.039 3.567 3.58 10.58 6.455 15.634 6.455h772.827c5.626 0 11.873-4.238 13.943-9.47 5.764-14.565 11.799-28.953 22.657-40.64 7.954-8.589 8.01-8.827 5.181-21.859-3.694-17.018-24.735-108.284-61.574-162.287-38.713-56.75-92.23-90.28-160.568-100.6C664.03 1.803 640.444.014 614.67 0z"></path><circle cx="51%" cy="calc(100% - 4px)" r="5" fill="#ff00ee"></circle></svg>