<svg xmlns="http://www.w3.org/2000/svg" viewBox="0 0 598.03204 890" id="SVG 79" xmlns:xlink="http://www.w3.org/1999/xlink"><path d="M290.833921 889.9754c-4.42502-.20408-18.90692-1.28213-32.18199-2.39544-13.27507-1.11328-31.98086-3.41048-41.56841-5.10489-9.58755-1.69438-29.50016-6.75683-44.25024-11.24983-14.75008-4.49301-36.47293-12.94411-48.27299-18.78021-11.80006-5.8361-27.30516-15.92325-34.45573-22.41586-7.1506-6.49263-17.55941-17.91429-23.13065-25.38148-5.57126-7.46719-13.17442-22.31049-16.89589-32.98515-3.72148-10.67463-10.60051-34.35401-15.286745-52.62077-4.686235-18.2668-11.589702-47.23059-15.340996-64.36399-5.997972-27.39468-6.980247-39.35469-8.144592-99.1683-1.200656-61.67835-1.788568-68.48119-6.308877-73.0015C.325755 477.83692.011203 471.52469.00002 382.23924c-.0054-52.40612 1.08979-98.18158 2.436311-101.72323 1.346548-3.54163 2.730213-22.54896 3.074855-42.238493.344643-19.689534 2.299994-47.232895 4.345186-61.207496 2.04522-13.974575 6.8339-33.2837708 10.641513-42.9093245 3.807612-9.6255265 10.676939-23.0858065 15.26518-29.9116875 4.588236-6.825908 18.964366-21.627426 31.946956-32.89225 14.26757-12.379796 32.30174-24.857237 45.59116-31.543479 12.09254-6.08408 32.24445-14.63269 44.78202-18.99695 12.53757-4.36425 35.46724-10.82237 50.95482-14.35137 15.48759-3.529 32.58427-6.42731 37.99264-6.44066 5.40835-.0134 10.26528 1.2714 10.79314 2.85502.62584 1.8775 17.02264 3.04386 47.12624 3.35229 34.81674.35669 46.48263-.35115 47.45254-2.87932C353.109911 1.50853 356.794461 0 360.590461 0c3.796 0 16.20384 1.88351 27.57297 4.18554 11.36912 2.30206 33.43344 8.22577 49.03181 13.16383 15.59837 4.93806 38.5138 13.992 50.92318 20.11988 12.40937 6.127885 26.80062 14.313831 31.98056 18.190983 5.17993 3.877153 18.22343 16.171103 28.98557 27.319857 10.76211 11.148755 23.16151 26.502971 27.55422 34.120476 4.39271 7.617505 10.52389 20.8925768 13.62486 29.5001604 4.79764 13.3171766 5.88837 24.2455116 7.31688 73.3095616.97484 33.481662.33005 84.648482-1.53771 122.023392-1.76908 35.40019-3.90014 98.15508-4.73572 139.4553-.83558 41.30023-2.12522 88.89721-2.86583 105.77108-.86905 19.79968-4.1429 43.10089-9.23159 65.70491-4.33677 19.26382-13.79162 54.33433-21.01082 77.93446-7.2192 23.60013-17.02205 50.60463-21.78413 60.01003-4.76205 9.40538-14.20205 23.0274-20.97772 30.27116-6.77568 7.24374-20.25803 18.34897-29.96077 24.67823-9.70274 6.32928-25.05958 14.64337-34.12632 18.47573-9.06674 3.83237-30.18617 10.01834-46.93207 13.74662-16.7459 3.72826-47.34264 8.03571-67.99275 9.57208-20.65011 1.53637-41.16613 2.62632-45.59116 2.42212z"></path><circle cx="50%" cy="49%" r="5" fill="rgb(255,234,0)"></circle></svg>