<svg xmlns="http://www.w3.org/2000/svg" viewBox="0 0 918.00006 358" id="SVG 92" xmlns:xlink="http://www.w3.org/1999/xlink"><path d="M630.95128 0c-30.6694 0-95.5115 8.3292-101.1269 12.9904-1.1123.92312-2.7372 1.235-3.6133.69347-2.6362-1.62954-33.5835 6.34287-80.9003 20.84131-54.7694 16.78193-112.9784 38.13714-134.3826 49.29908-10.1469 5.29165-11.0031 5.47118-15.2969 3.25054-57.9-29.94655-142.2949 8.48624-164.3064 74.82474l-2.7949 8.42716-46.2871 23.24795C8.00449 230.85645-.31232 234.91534.00861 241.4399c.0464.93224.26878 1.91644.5 3.05324 1.25686 6.17671 16.74132 34.06627 20.9785 37.78547 9.21965 8.09254 30.08043 39.28658 32.71871 48.92598 3.20521 11.71061 8.5965 20.36185 18.3574 26.7954h799.42286c18.1953-10.0786 31.3583-24.90361 41.4024-45.80242 6.3335-13.17803 6.3135-13.81047-1.1192-41.11415C863.12228 90.54308 769.15958 0 630.95128 0z"></path><circle cx="52%" cy="calc(100% - 4px)" r="5" fill="#ffea00"></circle></svg>