<svg xmlns="http://www.w3.org/2000/svg" viewBox="0 0 1250 400" id="SVG 94" xmlns:xlink="http://www.w3.org/1999/xlink"><path d="M631.26377.053894c-13.19711.125685-25.67775.469895-34.25911 1.002147l-31.20499 1.936123-2.10605 13.961891-2.11286 13.961891-.48756-13.089273c-.37425-9.956298-1.94667-13.086459-6.56199-13.075639-3.3372.0077-20.8692 2.432364-38.958828 5.385691-18.089666 2.953328-47.956924 9.214995-66.371537 13.91417-18.4146484 4.699178-47.300058 13.422114-64.190968 19.3884833-16.890909 5.96636982-36.517177 14.1004279-43.611109 18.0727257-11.518001 6.44973-14.428455 6.759231-27.209568 2.904213-7.87183-2.374255-24.82051-4.28124-37.66538-4.240401-15.39298.04897-30.34808 2.691259-43.86846 7.758134-15.29912 5.733451-25.8434 13.143724-41.47797 29.144086-11.52963 11.799369-22.96792 26.8713-25.42177 33.49353-2.45385 6.622195-6.64649 17.144225-9.31815 23.383443-3.53678 8.25954-7.10442 11.34404-13.12397 11.34404-4.54714 0-26.43278 11.68746-48.62912 25.97404-22.19634 14.28657-51.22042 33.3168-64.50248 42.28788-13.28206 8.97104-25.9791 18.52767-28.2118 21.23596-3.15817 3.83087-2.62727 7.59328 2.37695 16.94789 5.4882 10.2593 8.73807 12.33463 22.16447 14.14598 8.65482 1.16763 17.29818 2.66271 19.20515 3.32003 1.90697.65733-1.21353 1.33912-6.93444 1.52028-5.72091.18094-12.74203 1.90583-15.60249 3.83131-4.56192 3.07082-4.48852 3.92382.58239 6.94004 3.1796 1.89124 11.54274 11.34788 18.5889 21.01104 7.04617 9.66317 18.72749 20.60458 25.95675 24.31739 7.22926 3.71282 17.94307 12.61171 23.81005 19.77709 7.33117 8.95362 9.40711 13.81543 6.6297 15.54349-3.02411 1.88154-2.89967 3.90026.49435 8.0172 2.49459 3.02596 7.85461 5.52821 11.9118 5.5561 4.05718.0294 9.71499 1.5918 12.57544 3.47686.47659.31407 4.2244.5397 6.80578.79761h465.89413c2.46845-.005 5.08284-.0292 7.51007-.0341 8.49285-.017 21.18988.0415 30.40589.0341h546.79145c3.64463-.38469 6.57312-.81066 8.15337-1.32254 9.76498-3.16303 15.00138-7.73182 19.87556-17.35013 3.63972-7.18217 14.31279-19.59572 23.72203-27.5829L1250 339.222839l-6.68386-19.53844c-3.67297-10.74727-12.28669-29.85388-19.14419-42.45832-6.8575-12.60445-19.1333-32.34415-27.27728-43.86271-8.14398-11.51856-25.38556-32.43857-38.31548-46.48738-12.92996-14.04876-36.13423-35.40121-51.56814-47.44861-15.43391-12.047401-39.76468-28.971343-54.06696-37.611205-14.30228-8.639863-38.48614-21.340681-53.74191-28.223753-15.25577-6.883108-35.5501-15.5968289-45.10094-19.361199-9.55087-3.76433525-33.73473-11.5803066-53.74191-17.370582-20.00721-5.790171-51.35189-13.769681-69.64914-17.731856-18.29724-3.962172-52.62272-9.52149-76.27884-12.35982C730.77524 3.930633 692.69993 1.0438 669.81628.360676c-11.44183-.341564-25.3554-.432463-38.55251-.306782z"></path><circle cx="47%" cy="calc(100% - 4px)" r="5" fill="#9e00ff"></circle></svg>