<svg xmlns="http://www.w3.org/2000/svg" viewBox="0 0 758.98193 303" id="SVG 93" xmlns:xlink="http://www.w3.org/1999/xlink"><path d="M116.35156 0C52.09158-.002-.00211 50.69876 0 113.24023c.0882 25.62214 9.10138 50.458 25.56836 70.44922 1.54681 4.00818 2.04171 10.38856 2.46289 26.25586l.68945 25.93555-7.1875.14062c-10.27146.2032-14.42187 2.29047-14.42187 7.24805 0 4.24083 1.14529 4.32657 56.97851 4.38281l56.97852.0586-7.45508 6.24414c-4.10035 3.43356-10.16569 6.8544-13.47851 7.60351-3.31287.74911-12.18947 5.58444-19.72461 10.74414-16.42 11.24357-52.83806 23.72494-58.00391 25.46485-3.90657 1.00624-5.9235 2.61397-6.53516 5.23242h742.9961c.42549-14.7504.21932-18.36619-10.72657-29.86523-15.78123-16.11987-18.69802-24.43209-23.44726-66.78907-7.75218-69.13879-22.88214-80.78643-111.28711-85.69922-25.32596-1.40737-27.47085-1.86374-30.48633-6.46679-9.94719-15.18412-28.89722-19.51688-105.23828-19.64453-10.90584-.0182-22.98355.0497-36.37305.18359-99.35983.99395-97.32308.70691-126.07617 17.85547l-16.70898 9.96484-18.82032-2.31836c-10.35237-1.27486-21.72047-3.8169-25.25781-5.64648-3.53733-1.82957-10.20449-3.32617-14.81836-3.32617-2.71606 0-5.13445-1.10159-7.05078-2.79492C229.94333 47.83614 178.6898.00988 116.35156 0z"></path></svg>