<svg xmlns="http://www.w3.org/2000/svg" viewBox="0 0 502.69046 759" id="SVG 87" xmlns:xlink="http://www.w3.org/1999/xlink"><path d="M448.055675 755.595962c-17.16179-7.88074-22.49667-19.39113-22.49667-48.53826 0-20.38863-.0418-20.55302-4.82072-18.92062-5.79578 1.97977-46.1192 1.35815-91.59358-1.412l-33.20937-2.02299-6.42762 7.22992c-21.37512 24.04313-64.20276 14.0857-65.63925-15.26112-.24731-5.0525-.43326-5.22621-1.22028-1.14009-.86355 4.48344-2.04236 4.82072-16.84855 4.82072h-15.92004v-35.53052l-12.319597-6.00648c-23.35755-11.38809-61.63415-35.26848-75.5228-47.11793l-13.9247802-11.88025-2.72025 7.85727c-7.34382 21.21209-32.9622468 31.08586-51.4341368 19.82353-3.85827-2.35238-8.09062-4.27707-9.40524-4.27707-3.1571 0-8.06493-6.59898-8.1508-10.95939-.0375-1.90328-2.01534-5.93597-4.39523-8.96154-7.66716-9.7472-8.69228-31.62447-6.54895-139.76277 1.81214-91.42842 1.60277-106.31916-2.28855-162.76858-2.61932-37.997-3.74109-69.2082-2.88772-80.34525.76752-10.01637 2.04188-42.38947 2.8319-71.940193 1.41429-52.899936 1.5211-53.858229 6.92534-62.133662 3.01888-4.622787 6.69693-13.919268 8.17344-20.658885 4.90974-22.4106695 3.73122-21.9247845 55.0305368-22.6878285 44.9719002-.668944 54.9277002.592476 57.4958002 7.2848073.9173 2.39043201 7.21326 3.0176393 30.29181 3.0176393h29.133827l-.67795 21.1522699-.67792 21.152291 6.42762-.262525c5.13218-.209541 6.5656.709073 7.11227 4.558211.55807 3.929354 2.04366 4.820715 8.03453 4.820715h7.34987l.0291-35.887546c.0422-51.824809-2.26359-49.139071 41.78071-48.663877 40.22686.434015 37.46414-2.893222 37.46414 45.119152v39.69094l8.03452-.664959c6.4538-.534157 8.16923-1.613418 8.71918-5.485695 1.41075-9.933373 21.70635-4.910552 21.94783 5.431724l.13584 5.816611 2.17406-5.35635c1.19573-2.945993 2.3398-15.479852 2.54238-27.853021l.3683-22.4966707 19.07844-.6238863c16.62772-.5437339 19.88269-1.30058619 25.33924-5.8919852 9.50378-7.9968808 92.20627-8.2558708 101.43501-.317632 12.93985 11.1303889 15.33071 89.4070622 15.73685 515.2223452l.17226 180.58024-5.14426 10.10583c-11.42341 22.44107-30.37715 30.92225-49.49052 22.14536z"></path></svg>