<svg xmlns="http://www.w3.org/2000/svg" viewBox="0 0 890 360" id="SVG 83" xmlns:xlink="http://www.w3.org/1999/xlink"><path d="M619.47411.0139c-21.01917.1221-41.406 1.2456-54.0175 2.9765-11.14125 1.5293-25.01099 3.5991-30.81833 4.6009-5.80734 1.0018-10.9579 2.468-11.44726 3.2566-.48934.7887-1.94632 1.0289-3.23828.5349-1.29195-.4937-12.09339 1.4586-24.00193 4.3383-11.90854 2.8796-33.42559 8.6744-47.81636 12.8767-14.39078 4.2024-37.55972 11.6767-51.48627 16.608-13.92656 4.9313-35.95497 13.1379-48.95309 18.2381-12.99813 5.1003-29.70918 11.8632-37.13668 15.0283-7.4275 3.1651-19.1129 8.8202-25.96482 12.5674-10.86376 5.9409-13.08597 6.5926-17.36522 5.1067-2.699-.9367-10.00573-1.3234-16.23827-.8599-6.23252.4636-16.26981 1.7265-22.30467 2.8072-7.06058 1.2644-16.04638 4.7197-25.20504 9.6882-9.75113 5.29-17.78348 11.3625-25.50584 19.2868-6.19946 6.3614-12.62596 14.078-14.28515 17.1467-2.55888 4.7329-6.37682 7.0666-25.14059 15.3941-12.16636 5.3995-29.17521 13.0828-37.7988 17.071-8.62359 3.9882-15.94825 7.2505-16.27537 7.2505-.3271 0-15.67897 7.2419-34.11716 16.0944-18.43824 8.8524-35.3093 17.7438-37.49019 19.7575-2.18089 2.0136-5.95638 7.4435-8.39063 12.0673-3.70599 7.0396-4.43341 10.6386-4.4746 22.131-.0417 11.6409.52853 14.5059 3.74999 18.8511 2.08899 2.8175 3.79688 6.1816 3.79688 7.48s5.66387 14.0048 12.58788 28.2337c6.92401 14.2291 16.60984 31.1665 21.52341 37.6398C46.98545 353.2016 50.7799 357.0428 55.4649 360h782.34691c6.5083-2.8693 10.9512-7.3082 27.4433-23.946 12.3901-12.4995 23.2334-23.981 24.0957-25.516.9791-1.7422.8439-10.1579-.3593-22.4052-1.06-10.7889-3.4563-28.6247-5.3243-39.6319-1.868-11.0075-4.5874-24.9306-6.041-30.9417-1.4536-6.0109-4.938-17.7355-7.7422-26.0529-2.8044-8.3175-8.8105-23.4109-13.3496-33.5427-4.5388-10.1319-12.9036-26.1013-18.5879-35.4881-5.6842-9.387-14.2142-22.2892-18.957-28.6696-4.7429-6.3801-15.8769-18.7869-24.744-27.5722-8.8669-8.7854-21.8147-19.8295-28.7696-24.5394-6.955-4.7095-17.6709-11.2366-23.8125-14.505-6.1413-3.2682-16.0149-7.869-21.9433-10.2231-5.9281-2.354-17.6146-6.157-25.9706-8.4528-8.3559-2.2956-20.8902-5.1922-27.8535-6.4354-8.1486-1.4552-24.6924-2.1902-46.4219-2.0641z"></path><circle cx="49%" cy="calc(100% - 4px)" r="5" fill="rgb(255,234,0)"></circle></svg>