<svg xmlns="http://www.w3.org/2000/svg" viewBox="0 0 581.99998 1160.0003" id="SVG 77" xmlns:xlink="http://www.w3.org/1999/xlink"><path d="M241.05511 0c-3.92972 0-20.59904 6.0140001-37.04403 13.361328-16.44502 7.347327-46.44218 22.045281-66.66211 32.66211-20.21995 10.616835-47.032298 25.825558-59.581224 33.798828-12.548952 7.97329-30.569135 20.818594-40.044927 28.542964-9.475807 7.72437-20.287324 19.45696-24.026193 26.07422-3.7388676 6.61725-8.3235922 16.87099-10.1904456 22.78516-2.72953666 8.64717-2.51764536 23.40504 1.0848199 75.36523 2.4638945 35.53805 7.0885457 107.48875 10.2800537 159.89063 3.191527 52.40187 6.409913 124.07616 7.153332 159.27148 1.012913 47.95358.246999 73.61262-3.061902 102.38477-2.428558 21.11717-7.658995 63.3529-11.6260687 93.85547C2.2216487 787.31907.08819847 816.68491.00387007 848.95312c-.085159 32.59681 1.22810253 51.95942 4.63288713 68.25782 2.6142048 12.51389 8.8111848 33.84957 13.7690188 47.41015 4.957873 13.56061 15.783525 35.83311 24.058603 49.49411 8.941236 14.7606 25.18495 35.3737 40.033486 50.8047 13.742325 14.2814 35.624465 33.2029 48.630075 42.0489 13.00556 8.8458 32.37262 20.0941 43.03439 25 10.66175 4.9058 30.00212 12.0969 42.98098 15.9785 12.97886 3.8818 32.9685 8.0993 44.42044 9.3691 11.45193 1.2697 23.31928 2.4668 26.37313 2.6621 3.05385.1952 16.79472-.9441 30.53703-2.5332 13.74233-1.589 34.35644-5.4643 45.80837-8.6113 11.45196-3.1471 34.566-12.6532 51.36215-21.1231 16.79619-8.4699 38.72047-21.7725 48.7235-29.5625 10.003-7.79 27.85751-24.5316 39.67505-37.2031 11.81749-12.6715 27.22169-32.126 34.23379-43.2305 7.01213-11.1045 16.9452-30.10165 22.07008-42.21675 5.12493-12.115 12.10862-33.38571 15.52306-47.26758 5.3929-21.92571 6.1996-32.51991 6.12568-80.69727-.0555-36.19704-1.71463-67.31276-4.77204-89.58789-2.57643-18.77081-7.22683-53.96529-10.33346-78.21093-3.10663-24.24565-6.25728-62.64086-7.00271-85.32227-.74538-22.68143-.11187-54.0393 1.40703-69.68164 1.51892-15.64237 4.75528-70.6732 7.19145-122.29297 2.43615-51.61976 6.22631-119.45356 8.42121-150.73828 2.19484-31.28469 4.11454-64.89608 4.263-74.69727.21085-13.90513-1.35485-21.21778-7.11711-33.2832-4.24315-8.88457-13.48915-21.08698-21.73262-28.67969-7.89075-7.26781-25.34374-20.639138-38.78851-29.712888-13.44483-9.07377-44.09756-26.731011-68.11109-39.240234-24.0135-12.509215-55.77614-27.993478-70.58575-34.41211C360.02532 5.2552241 344.71941 0 340.82424 0c-4.76364 0-6.5892 1.3133406-6.93216 4.7421875l-1.01047 4.8847652c-.74416 1.0351243-1.98136 1.2864783-3.9961.6875003-2.6721-.7944363-10.42452-2.9185511-17.22747-4.7226561-6.80294-1.804133-18.6703-2.5503132-26.37315-1.6582031-7.70282.892101-18.36983 2.930224-23.70399 4.53125-5.33416 1.6010252-9.87183 2.9121092-10.08559 2.9121092-.21371 0-1.04308-2.5570963-1.8417-5.6855468C248.67611 1.8620252 245.86519 0 241.05511 0Z"></path><circle cx="50%" cy="48%" r="5" fill="rgb(0,200,255)"></circle></svg>